<svg xmlns="http://www.w3.org/2000/svg" viewBox="0 0 360 360" width="360" height="360">
  <defs>
    <filter id="shadow" x="-20%" y="-20%" width="140%" height="140%">
      <feDropShadow dx="0" dy="10" stdDeviation="15" flood-color="#000000" flood-opacity="0.08" />
    </filter>
  </defs>
  <rect x="30" y="30" width="300" height="300" rx="24" fill="#ffffff" filter="url(#shadow)" />
  <g transform="translate(38, 38)">
    <rect width="138" height="138" rx="16" fill="#f8f9fa" />
    <svg x="13" y="13" width="112" height="112" viewBox="0 -960 960 960">
      <title>Schema</title>
      <path fill="#1f1f1f" d="M160-120v-80q0-33 23.5-56.5T240-280h20v-80h-20q-33 0-56.5-23.5T160-440v-80q0-33 23.5-56.5T240-600h20v-80h-20q-33 0-56.5-23.5T160-760v-80q0-33 23.5-56.5T240-920h120q33 0 56.5 23.5T440-840v80q0 33-23.5 56.5T360-680h-20v80h20q33 0 56.5 23.5T440-520h120q0-33 23.5-56.5T640-600h120q33 0 56.5 23.5T840-520v80q0 33-23.5 56.5T760-360H640q-33 0-56.5-23.5T560-440H440q0 33-23.5 56.5T360-360h-20v80h20q33 0 56.5 23.5T440-200v80q0 33-23.5 56.5T360-40H240q-33 0-56.5-23.5T160-120Zm80 0h120v-80H240v80Zm0-320h120v-80H240v80Zm400 0h120v-80H640v80ZM240-760h120v-80H240v80Zm60-40Zm0 320Zm400 0ZM300-160Z"/>
    </svg>
  </g>
  <g transform="translate(184, 38)">
    <rect width="138" height="138" rx="16" fill="#f8f9fa" />
    <svg x="13" y="13" width="112" height="112" viewBox="0 -960 960 960">
      <title>Commit</title>
      <path fill="#1f1f1f" d="M352.5-325.5Q298-371 284-440H120q-17 0-28.5-11.5T80-480q0-17 11.5-28.5T120-520h164q14-69 68.5-114.5T480-680q73 0 127.5 45.5T676-520h164q17 0 28.5 11.5T880-480q0 17-11.5 28.5T840-440H676q-14 69-68.5 114.5T480-280q-73 0-127.5-45.5ZM480-360q50 0 85-35t35-85q0-50-35-85t-85-35q-50 0-85 35t-35 85q0 50 35 85t85 35Z"/>
    </svg>
  </g>
  <g transform="translate(38, 184)">
    <rect width="138" height="138" rx="16" fill="#f8f9fa" />
    <svg x="13" y="13" width="112" height="112" viewBox="0 -960 960 960">
      <title>Build</title>
      <path fill="#1f1f1f" d="M360-360q-100 0-170-70t-70-170q0-20 3-40t11-38q5-10 12.5-15t16.5-7q9-2 18.5.5T199-689l105 105 72-72-105-105q-8-8-10.5-17.5T260-797q2-9 7-16.5t15-12.5q18-8 38-11t40-3q100 0 170 70t70 170q0 23-4 43.5T584-516l202 200q29 29 29 71t-29 71q-29 29-71 29t-71-30L444-376q-20 8-40.5 12t-43.5 4Zm0-80q26 0 52-8t47-25l243 243q5 5 13.5 4.5T729-231q5-5 5-13.5t-5-13.5L486-500q18-20 26-46.5t8-53.5q0-60-38.5-104.5T386-758l74 74q12 12 12 28t-12 28L332-500q-12 12-28 12t-28-12l-74-74q9 57 53.5 95.5T360-440Zm109-51Z"/>
    </svg>
  </g>
  <g transform="translate(184, 184)">
    <rect width="138" height="138" rx="16" fill="#f8f9fa" />
    <svg x="13" y="13" width="112" height="112" viewBox="0 -960 960 960">
      <title>Code</title>
      <path fill="#1f1f1f" d="m193-479 155 155q11 11 11 28t-11 28q-11 11-28 11t-28-11L108-452q-6-6-8.5-13T97-480q0-8 2.5-15t8.5-13l184-184q12-12 28.5-12t28.5 12q12 12 12 28.5T349-635L193-479Zm574-2L612-636q-11-11-11-28t11-28q11-11 28-11t28 11l184 184q6 6 8.5 13t2.5 15q0 8-2.5 15t-8.5 13L668-268q-12 12-28 11.5T612-269q-12-12-12-28.5t12-28.5l155-155Z"/>
    </svg>
  </g>
</svg>
